# xmcd
#
# Track frame offsets:
#	182
#	18705
#	33067
#	52225
#	69117
#	85245
#	102620
#	121800
#	141412
#	156882
#
# Disc length: 2274 seconds
#
# Revision: 0
# Processed by: cddbd v1.5.2PL0 Copyright (c) Steve Scherf et al.
# Submitted via: EasyCDDAExtractor 11.1.0.1
#
DISCID=8608e00a
DTITLE=Deek Sparrow - You don't have to be a cowboy
DYEAR=1900
DGENRE=Country
TTITLE0=You don't have to be a cowboy
TTITLE1=Chemical trees
TTITLE2=Three fingers of whiskey
TTITLE3=Hard times again
TTITLE4=Black leather dusty boots
TTITLE5=Sunset raider
TTITLE6=Goin' crazy over you
TTITLE7=Grandads old tobacco tin
TTITLE8=W.O.M.A.N.
TTITLE9=Crossing bridges
EXTD=
EXTT0=
EXTT1=
EXTT2=
EXTT3=
EXTT4=
EXTT5=
EXTT6=
EXTT7=
EXTT8=
EXTT9=
PLAYORDER=
